PathFileType	4	(X/Y/Z)	C:\Users\dbl\Desktop\LZH\BX\Trimmed_bx_n_10_1801.trc
DataRate	CameraRate	NumFrames	NumMarkers	Units	OrigDataRate	OrigDataStartFrame	OrigNumFrames
50.00	50.00	       7	43	mm	50.00	247	       394
Frame#	Time	Top.Head			R.Acromium			L.Acromium			Sternum			R.ASIS			L.ASIS			V.Sacral			R.Thigh.Upper			R.Thigh.Front			R.Thigh.Rear			R.Knee.Lat			R.Knee.Med			R.Shank.Upper			R.Shank.Front			R.Shank.Rear			R.Ankle.Lat			R.Midfoot.Lat			R.Toe.Lat			R.Toe.Tip			R.Toe.Med			R.Ankle.Med			R.Midfoot.Sup			R.Heel			L.Thigh.Upper			L.Thigh.Front			L.Thigh.Rear			L.Knee.Lat			L.Knee.Med			L.Shank.Upper			L.Shank.Front			L.Shank.Rear			L.Ankle.Lat			L.Midfoot.Lat			L.Toe.Lat			L.Toe.Tip			L.Toe.Med			L.Ankle.Med			L.Midfoot.Sup			L.Heel			origin1 front left			origin2 front right			origin 3 back right			origin 4 back leftt			
		X1	Y1	Z1	X2	Y2	Z2	X3	Y3	Z3	X4	Y4	Z4	X5	Y5	Z5	X6	Y6	Z6	X7	Y7	Z7	X8	Y8	Z8	X9	Y9	Z9	X10	Y10	Z10	X11	Y11	Z11	X12	Y12	Z12	X13	Y13	Z13	X14	Y14	Z14	X15	Y15	Z15	X16	Y16	Z16	X17	Y17	Z17	X18	Y18	Z18	X19	Y19	Z19	X20	Y20	Z20	X21	Y21	Z21	X22	Y22	Z22	X23	Y23	Z23	X24	Y24	Z24	X25	Y25	Z25	X26	Y26	Z26	X27	Y27	Z27	X28	Y28	Z28	X29	Y29	Z29	X30	Y30	Z30	X31	Y31	Z31	X32	Y32	Z32	X33	Y33	Z33	X34	Y34	Z34	X35	Y35	Z35	X36	Y36	Z36	X37	Y37	Z37	X38	Y38	Z38	X39	Y39	Z39	X40	Y40	Z40	X41	Y41	Z41	X42	Y42	Z42	X43	Y43	Z43	

247	4.920	-397.76083	253.88490	1781.60120	-540.40814	69.66608	1512.45483	-544.89294	424.83136	1510.92920	-516.21588	246.88811	1308.41003	-607.82037	122.06149	1021.21118	-583.83716	349.66843	1031.00220	-797.24060	252.42667	1058.26453	-650.47449	71.18233	866.61609	-572.08392	136.75653	863.39252	-632.70673	82.14921	740.30579	-640.43243	109.72681	601.00800	-607.30560	217.61259	563.37231	-663.88599	113.08591	539.25043	-580.92163	150.11101	535.59222	-706.22711	116.29633	476.59198	-692.34882	141.35674	212.89886	-615.88062	83.43269	163.92235	-566.88196	64.58591	162.27200	-491.22906	111.13576	160.12312	-538.16028	159.92334	166.92201	-644.89954	217.57021	218.54807	-603.52740	195.05357	173.09966	-729.24158	207.44191	171.22441	-648.73676	438.42819	876.00684	-562.99481	360.19037	856.60095	-644.24158	425.74057	754.47278	-641.31976	405.13025	625.72827	-591.59821	304.55142	578.21130	-639.62518	404.53336	560.81732	-577.13123	359.03317	549.56470	-688.90302	405.73706	509.25839	-679.15387	407.89920	216.66211	-588.62769	458.32834	164.98021	-549.93427	466.54333	161.34285	-489.31082	419.51694	167.34453	-528.15289	377.45352	176.65172	-645.76733	317.45206	206.08159	-598.22144	337.44476	168.65746	-737.64966	337.79831	163.86676	-443.50769	448.69815	147.15680	-450.32114	75.08288	144.29747	-806.38269	82.77316	142.29939	-799.27539	457.43210	145.73697	
248	4.940	-386.44263	253.59456	1771.98145	-532.72888	69.31245	1505.68152	-536.15668	424.46887	1503.35107	-515.59723	245.86980	1300.72192	-614.71350	121.47665	1018.15656	-590.76074	349.13428	1027.85010	-804.16467	252.17165	1056.86108	-655.33728	69.53061	865.08008	-577.19830	135.72108	863.67590	-633.22589	79.85839	739.25385	-636.33112	107.81537	600.12927	-602.91449	215.42529	563.15198	-659.56372	110.94065	538.51135	-576.40344	147.95197	535.34186	-702.73303	114.47932	476.44965	-691.96252	141.23987	212.80096	-615.88965	83.25426	163.83009	-566.91602	64.45449	162.16434	-491.16043	111.09432	160.05757	-538.17450	159.88492	166.90053	-644.11554	217.44792	218.94939	-603.52203	194.98033	173.16278	-729.18909	207.30666	171.51643	-652.95282	438.73404	875.31860	-568.02539	359.14645	857.32025	-644.45081	426.42404	753.63165	-637.45825	405.80661	625.15143	-588.08392	305.04587	577.99823	-635.54846	405.33411	560.29950	-573.23615	359.58047	549.37128	-685.28510	406.64258	509.05988	-678.78894	408.01685	216.45285	-588.65448	458.38165	164.94223	-549.89154	466.58185	161.34845	-489.15198	419.46744	167.21135	-528.16559	377.51776	176.65036	-645.72504	317.51648	205.72235	-598.15912	337.60440	168.59146	-737.65338	337.83902	163.84067	-443.54114	448.80676	147.16597	-450.29544	75.10242	144.30548	-806.37823	82.76785	142.33310	-799.23877	457.43353	145.75858	
249	4.960	-375.21426	253.37506	1761.07471	-524.77094	68.92322	1497.52271	-527.43896	424.10767	1494.41187	-515.28058	244.86539	1292.02979	-621.65747	121.15416	1014.71332	-597.82959	348.74500	1024.00806	-811.23785	251.95221	1054.71667	-660.25690	67.95979	863.27423	-582.37701	134.70045	863.50940	-634.03577	77.65339	738.00610	-632.71332	105.87468	599.28632	-599.04913	213.24562	562.89935	-655.70941	108.75803	537.74518	-572.01819	145.82356	535.52710	-699.68658	112.66646	476.21002	-691.66089	141.07161	212.75633	-615.93555	83.07989	163.73419	-566.96405	64.30807	162.03551	-491.12244	111.06638	160.02739	-538.19019	159.82034	166.90056	-643.49371	217.29871	219.33965	-603.51233	194.96416	173.20496	-729.22235	207.14676	171.72656	-657.20837	439.53381	874.33783	-573.10107	358.45139	857.87640	-644.40619	427.21512	752.52637	-633.18237	406.64630	624.40826	-583.98914	305.88541	577.73010	-630.91772	406.33676	559.72528	-568.82538	360.31683	549.04004	-681.26721	407.71082	508.80411	-678.43933	407.93561	215.94109	-588.67456	458.46982	164.87579	-549.84106	466.63959	161.34760	-488.93579	419.41290	167.05850	-528.14569	377.58978	176.62971	-645.48889	317.60153	205.49391	-598.06390	337.73550	168.57681	-737.61719	337.90613	163.86101	-443.55450	448.84467	147.17311	-450.27362	75.11971	144.30774	-806.38007	82.76534	142.34663	-799.25806	457.39780	145.76073	
250	4.980	-364.13452	253.23502	1748.93286	-516.66467	68.54169	1487.93896	-519.05872	423.50375	1484.06555	-515.23621	243.89531	1282.43506	-628.61731	121.00900	1010.83136	-605.06366	348.52353	1019.60547	-818.43146	251.90698	1051.99561	-665.24866	66.49951	861.24567	-587.59790	133.65074	862.92145	-635.15881	75.75540	736.61938	-629.67999	103.94430	598.56293	-595.78082	211.18309	562.67804	-652.41272	106.62867	537.00879	-567.93927	143.85841	536.04901	-697.09100	110.95038	475.89618	-691.45532	140.88983	212.72728	-616.03375	82.92162	163.61572	-567.02057	64.18179	161.91438	-491.12799	111.06806	160.03152	-538.20563	159.73770	166.91946	-643.11328	217.14291	219.55685	-603.49487	194.98311	173.24333	-729.28967	207.03601	171.79855	-661.64514	440.45947	872.77844	-578.01886	358.15561	858.17511	-644.30627	428.05847	751.14056	-628.68506	407.57477	623.50745	-579.33038	307.04269	577.40076	-625.95880	407.47556	559.07562	-564.01746	361.27664	548.47052	-676.97052	408.79822	508.47620	-678.16656	407.67050	215.26843	-588.68134	458.57434	164.79749	-549.81921	466.71768	161.31310	-488.76212	419.39542	166.93317	-528.09827	377.65543	176.59932	-645.14648	317.68451	205.37854	-597.97375	337.78607	168.58559	-737.55518	337.96991	163.94618	-443.56161	448.82343	147.19707	-450.27185	75.12253	144.30650	-806.38794	82.76936	142.33766	-799.31842	457.32928	145.75349	
251	5.000	-353.30157	253.12700	1735.67383	-508.56241	68.25523	1476.95325	-511.24548	422.51266	1472.33301	-515.38287	243.00548	1272.05310	-635.59418	120.98302	1006.49146	-612.55029	348.45486	1014.70898	-825.79858	252.06825	1048.92310	-670.24805	65.14711	859.06000	-592.81891	132.59972	862.00415	-636.48914	74.12801	735.20093	-627.13226	102.04006	597.94238	-593.01086	209.25127	562.55353	-649.59229	104.58587	536.31226	-564.47015	142.07774	536.47595	-694.83478	109.34888	475.53894	-691.31970	140.70540	212.66176	-616.16168	82.78425	163.46745	-567.07391	64.10663	161.81619	-491.17407	111.10246	160.05873	-538.22430	159.65601	166.93510	-642.93634	217.02895	219.57721	-603.47955	195.00223	173.28271	-729.38007	207.00847	171.74487	-666.37476	441.21558	870.47772	-582.57196	358.34625	858.17578	-644.43341	428.94037	749.41925	-624.22516	408.49100	622.41547	-574.22839	308.45563	576.96613	-620.93329	408.66061	558.35486	-558.99506	362.41983	547.66870	-672.51306	409.78281	508.09375	-677.94720	407.36139	214.73109	-588.67627	458.65643	164.73575	-549.85968	466.79486	161.22470	-488.67966	419.40472	166.85608	-528.03790	377.69348	176.57512	-644.78809	317.71634	205.33559	-597.90125	337.74683	168.56664	-737.47534	337.95453	164.07207	-443.56546	448.77252	147.23018	-450.28937	75.11173	144.30354	-806.40216	82.77793	142.31633	-799.38629	457.24457	145.72255	
252	5.020	-342.78796	252.97534	1721.42297	-500.57520	68.08729	1464.72021	-503.96545	421.31595	1459.42896	-515.64606	242.26993	1260.96436	-642.65051	121.04848	1001.72858	-620.30908	348.47366	1009.30109	-833.37915	252.36247	1045.62170	-675.15778	63.89034	856.77081	-597.99402	131.63309	860.87781	-637.84637	72.54591	733.82501	-624.81720	100.11217	597.32501	-590.48352	207.37642	562.48981	-647.03979	102.56612	535.60980	-561.72382	140.35724	536.42719	-692.74347	107.80557	475.16571	-691.23181	140.51677	212.54063	-616.27136	82.66811	163.31050	-567.11841	64.08859	161.73112	-491.24408	111.16234	160.08887	-538.25537	159.57936	166.93213	-642.91028	216.92288	219.45360	-603.51080	194.97015	173.28770	-729.48126	207.03610	171.64803	-671.45715	441.70901	867.41132	-586.68750	359.10126	857.83612	-644.98834	429.87903	747.30902	-620.05542	409.34549	621.12122	-568.91119	309.99002	576.42712	-616.03601	409.80780	557.59064	-553.95557	363.66931	546.74738	-668.04730	410.62436	507.70978	-677.71069	407.12891	214.49446	-588.66254	458.68478	164.71114	-549.94080	466.82584	161.09941	-488.65182	419.39978	166.81328	-527.97754	377.69186	176.56471	-644.46631	317.65213	205.30159	-597.85004	337.69647	168.49042	-737.38312	337.81665	164.23364	-443.56406	448.73404	147.24527	-450.31058	75.09802	144.30051	-806.42090	82.78745	142.28763	-799.43396	457.16455	145.67064	
253	5.040	-332.64786	252.74339	1706.29907	-492.78287	67.95282	1451.50549	-497.00745	420.26367	1445.69446	-516.00073	241.74002	1249.21777	-649.79901	121.15371	996.57678	-628.16064	348.52539	1003.33685	-841.08624	252.63980	1042.00220	-679.91736	62.72792	854.33972	-603.08551	130.81070	859.61975	-639.10461	70.80779	732.45758	-622.46851	98.04409	596.60620	-587.85394	205.42026	562.36884	-644.49933	100.45538	534.82452	-559.38751	138.51550	535.90234	-690.61914	106.22686	474.77512	-691.17584	140.31740	212.39052	-616.33374	82.56721	163.17258	-567.15533	64.09486	161.65651	-491.31705	111.23692	160.10115	-538.30878	159.49214	166.92482	-643.01086	216.71489	219.24149	-603.66010	194.82153	173.19153	-729.56207	207.04576	171.59599	-676.88391	441.93335	863.62640	-590.50183	360.39215	857.04279	-646.00702	430.87787	744.81067	-616.30835	410.17023	619.67834	-563.64630	311.46704	575.83508	-611.37036	410.88840	556.79944	-549.09363	364.95721	545.81250	-663.75110	411.36612	507.36530	-677.42505	406.97894	214.46733	-588.65515	458.67316	164.70871	-549.99243	466.78336	160.98613	-488.62338	419.35986	166.77509	-527.92059	377.65170	176.55986	-644.19855	317.49759	205.20898	-597.84119	337.74240	168.38182	-737.29456	337.60281	164.44968	-443.56165	448.73270	147.23373	-450.32498	75.08846	144.29576	-806.43488	82.79539	142.25940	-799.45667	457.09695	145.62300	
